<?xml version="1.0" encoding="UTF-8" standalone="no"?>
<!-- Created with Inkscape (http://www.inkscape.org/) -->

<svg
   width="160"
   height="160"
   viewBox="0 0 42.333332 42.333333"
   version="1.1"
   id="svg5"
   xml:space="preserve"
   inkscape:version="1.2.1 (9c6d41e410, 2022-07-14)"
   sodipodi:docname="ba.svg"
   inkscape:export-filename="../dist/100x100/ba.png"
   inkscape:export-xdpi="60"
   inkscape:export-ydpi="60"
   xmlns:inkscape="http://www.inkscape.org/namespaces/inkscape"
   xmlns:sodipodi="http://sodipodi.sourceforge.net/DTD/sodipodi-0.dtd"
   xmlns:xlink="http://www.w3.org/1999/xlink"
   xmlns="http://www.w3.org/2000/svg"
   xmlns:svg="http://www.w3.org/2000/svg"><sodipodi:namedview
     id="namedview7"
     pagecolor="#505050"
     bordercolor="#ffffff"
     borderopacity="1"
     inkscape:showpageshadow="0"
     inkscape:pageopacity="0"
     inkscape:pagecheckerboard="1"
     inkscape:deskcolor="#505050"
     inkscape:document-units="mm"
     showgrid="false"
     inkscape:zoom="2.3836482"
     inkscape:cx="62.089699"
     inkscape:cy="84.534287"
     inkscape:window-width="1366"
     inkscape:window-height="699"
     inkscape:window-x="0"
     inkscape:window-y="0"
     inkscape:window-maximized="1"
     inkscape:current-layer="layer1" /><defs
     id="defs2"><inkscape:path-effect
       effect="offset"
       id="path-effect940"
       is_visible="true"
       lpeversion="1.2"
       linejoin_type="miter"
       unit="mm"
       offset="0.025"
       miter_limit="4"
       attempt_force_join="false"
       update_on_knot_move="true" /><inkscape:path-effect
       gridpoint32x33x34x35="449.99997,300"
       gridpoint29x31="487.49997,300"
       gridpoint28x30="412.49997,300"
       gridpoint25x27="524.99997,300"
       gridpoint24x26="374.99997,300"
       gridpoint22x23="449.99997,337.5"
       gridpoint20x21="449.99997,262.5"
       gridpoint19="487.49997,337.5"
       gridpoint18="412.49997,337.5"
       gridpoint17="487.49997,262.5"
       gridpoint16="412.49997,262.5"
       gridpoint15="524.99997,337.5"
       gridpoint14="374.99997,337.5"
       gridpoint13="524.99997,262.5"
       gridpoint12="374.99997,262.5"
       gridpoint10x11="449.99997,375"
       gridpoint8x9="449.99997,225"
       gridpoint7="487.49997,375"
       gridpoint6="412.49997,375"
       gridpoint5="487.49997,225"
       gridpoint4="412.49997,225"
       gridpoint3="524.99997,375"
       gridpoint2="374.99997,375"
       gridpoint1="524.99997,225"
       gridpoint0="374.99997,225"
       effect="lattice2"
       id="path-effect5588"
       is_visible="true"
       lpeversion="1"
       horizontal_mirror="false"
       vertical_mirror="false"
       perimetral="false"
       live_update="true" /><inkscape:path-effect
       effect="lattice2"
       gridpoint0="374.99997,225"
       gridpoint1="524.99997,225"
       gridpoint2="374.99997,375"
       gridpoint3="524.99997,375"
       gridpoint4="412.49997,225"
       gridpoint5="487.49997,225"
       gridpoint6="412.49997,375"
       gridpoint7="487.49997,375"
       gridpoint8x9="449.99997,225"
       gridpoint10x11="449.99997,375"
       gridpoint12="374.99997,262.5"
       gridpoint13="524.99997,262.5"
       gridpoint14="374.99997,337.5"
       gridpoint15="524.99997,337.5"
       gridpoint16="412.49997,262.5"
       gridpoint17="487.49997,262.5"
       gridpoint18="412.49997,337.5"
       gridpoint19="487.49997,337.5"
       gridpoint20x21="449.99997,262.5"
       gridpoint22x23="449.99997,337.5"
       gridpoint24x26="374.99997,300"
       gridpoint25x27="524.99997,300"
       gridpoint28x30="412.49997,300"
       gridpoint29x31="487.49997,300"
       gridpoint32x33x34x35="449.99997,300"
       id="path-effect5150"
       is_visible="true"
       lpeversion="1"
       horizontal_mirror="false"
       vertical_mirror="false"
       perimetral="false"
       live_update="true" /><linearGradient
       id="linearGradient4663"
       inkscape:swatch="solid"><stop
         style="stop-color:#000000;stop-opacity:1;"
         offset="0"
         id="stop4661" /></linearGradient><filter
       inkscape:label="In and Out"
       inkscape:menu="Shadows and Glows"
       inkscape:menu-tooltip="Inner colorized shadow, outer black shadow"
       style="color-interpolation-filters:sRGB;"
       id="filter6525"
       x="-0.032351269"
       y="-0.053282616"
       width="1.0754863"
       height="1.0959087"><feMorphology
         id="feMorphology18670"
         operator="erode"
         radius="0.5"
         result="result0" /><feGaussianBlur
         result="result1"
         in="result0"
         stdDeviation="0.5"
         id="feGaussianBlur6519" /><feOffset
         id="feOffset35133"
         in="result1"
         result="result2"
         dy="-0.3"
         dx="0.4" /><feComposite
         in="SourceGraphic"
         in2="result2"
         operator="out"
         id="feComposite6523" /></filter><linearGradient
       inkscape:collect="always"
       xlink:href="#linearGradient8815-1"
       id="linearGradient8817-6"
       x1="2.6037173"
       y1="22.997286"
       x2="39.684917"
       y2="22.997286"
       gradientUnits="userSpaceOnUse"
       gradientTransform="translate(-3.6e-6,-1.5875)" /><linearGradient
       inkscape:collect="always"
       id="linearGradient8815-1"><stop
         style="stop-color:#ffffff;stop-opacity:0;"
         offset="0"
         id="stop8811-8" /><stop
         style="stop-color:#ffffff;stop-opacity:0.35896516;"
         offset="0.48986521"
         id="stop8819-7" /><stop
         style="stop-color:#ffffff;stop-opacity:0.0592135;"
         offset="0.87028039"
         id="stop8821-9" /><stop
         style="stop-color:#ffffff;stop-opacity:0.14349835;"
         offset="0.96758133"
         id="stop8813-2" /><stop
         style="stop-color:#ffffff;stop-opacity:0;"
         offset="1"
         id="stop35136-0" /></linearGradient><filter
       inkscape:label="In and Out"
       inkscape:menu="Shadows and Glows"
       inkscape:menu-tooltip="Inner colorized shadow, outer black shadow"
       style="color-interpolation-filters:sRGB"
       id="filter6525-3"
       x="-0.032351269"
       y="-0.042626093"
       width="1.0647025"
       height="1.1030131"><feGaussianBlur
         result="result1"
         in="SourceAlpha"
         stdDeviation="0.5"
         id="feGaussianBlur6519-7" /><feOffset
         id="feOffset35133-5"
         in="result1"
         result="result2"
         dy="0.5"
         dx="0" /><feComposite
         in="SourceGraphic"
         in2="result2"
         operator="out"
         id="feComposite6523-3" /></filter></defs><g
     inkscape:label="Слой 1"
     inkscape:groupmode="layer"
     id="layer1"><path
       id="path307"
       style="fill:#008f02;fill-opacity:1;stroke-width:0.264583"
       d="m 2.6024251,6.3133097 -0.010335,5.168e-4 0.012919,18.9133805 c 0,0 2.817971,1.397331 7.2744913,1.397331 5.6784116,0 15.9468926,-2.922302 22.3035486,-2.922302 4.311408,0 7.501867,1.542541 7.501867,1.542541 l 0,-12.474578 c 0,0 -2.673846,-1.583855 -6.985254,-1.583855 -6.356656,0 -17.14175,3.219316 -22.8201616,3.219316 -4.4565203,0 -7.2744913,-1.397331 -7.2744913,-1.397331 z"
       sodipodi:nodetypes="cccssccsscc" /><path
       id="path307-3"
       style="fill:#1e89ff;fill-opacity:1;stroke-width:0.264583"
       d="m 2.6024251,6.31331 -0.010335,5.16e-4 0.012919,11.072385 c 0,0 2.817971,1.397332 7.2744913,1.397332 5.6784116,0 15.9468926,-2.922303 22.3035476,-2.922303 4.311408,0 7.501867,1.542541 7.501867,1.542541 V 9.30754 c 0,0 -2.673846,-1.583855 -6.985254,-1.583855 -6.356656,0 -17.14175,3.219316 -22.8201606,3.219316 -4.4565203,0 -7.2744913,-1.39733 -7.2744913,-1.39733 z"
       sodipodi:nodetypes="cccssccsscc" /><path
       id="path307-3-6"
       style="fill:#e3e3e3;fill-opacity:1;stroke-width:0.264583"
       d="m 2.6024251,21.994847 -0.010335,5.16e-4 0.012919,11.072385 c 0,0 2.817971,1.397332 7.2744913,1.397332 5.6784116,0 15.9468926,-2.922303 22.3035476,-2.922303 4.311408,0 7.501867,1.542541 7.501867,1.542541 v -8.096241 c 0,0 -2.673846,-1.583855 -6.985254,-1.583855 -6.356656,0 -17.14175,3.219316 -22.8201606,3.219316 -4.4565203,0 -7.2744913,-1.39733 -7.2744913,-1.39733 z"
       sodipodi:nodetypes="cccssccsscc" /></g><g
     inkscape:groupmode="layer"
     id="layer2"
     inkscape:label="Shadow"
     sodipodi:insensitive="true"
     style="display:inline"><path
       id="rect8083-2"
       style="display:inline;fill:url(#linearGradient8817-6);fill-opacity:1;stroke-width:0.289589"
       d="m 32.699809,7.7235596 c -6.35665,0 -17.141906,3.2194414 -22.8203126,3.2194414 -4.456515,0 -7.274491,-1.3973305 -7.274491,-1.3973305 l -10e-4,-1.2929443 V 30.92731 l 10e-4,2.140439 c 0,0 2.817976,1.397331 7.274492,1.397331 5.6784056,0 15.9468976,-2.922302 22.3035476,-2.922302 4.311403,0 7.501867,1.542541 7.501867,1.542541 V 9.3074425 c 0,0 -2.673699,-1.5838829 -6.985103,-1.5838829 z"
       inkscape:label="rect8083" /><path
       id="path307-7"
       style="display:inline;opacity:0.494207;fill:#000000;fill-opacity:1;stroke-width:0.264583;filter:url(#filter6525)"
       d="m 2.6025722,6.3131843 -0.010335,5.168e-4 0.012919,26.7539229 c 0,0 2.817971,1.397331 7.2744913,1.397331 5.6784115,0 15.9468925,-2.922302 22.3035485,-2.922302 4.311408,0 7.501867,1.542541 7.501867,1.542541 V 9.3074149 c 0,0 -2.673846,-1.5838553 -6.985254,-1.5838553 -6.356656,0 -17.14175,3.2193164 -22.8201615,3.2193164 -4.4565203,0 -7.2744913,-1.3973307 -7.2744913,-1.3973307 z"
       sodipodi:nodetypes="cccssccsscc" /><path
       id="path307-7-5"
       style="display:inline;opacity:0.494207;fill:#ffffff;fill-opacity:1;stroke-width:0.264583;filter:url(#filter6525-3)"
       d="m 2.6024144,6.3133093 -0.01033,5.168e-4 0.01292,26.7539229 c 0,0 2.817971,1.397331 7.274492,1.397331 5.6784106,0 15.9468916,-2.922302 22.3035476,-2.922302 4.311408,0 7.501867,1.542541 7.501867,1.542541 V 9.3075399 c 0,0 -2.673846,-1.5838553 -6.985254,-1.5838553 -6.356656,0 -17.14175,3.2193164 -22.8201606,3.2193164 -4.456521,0 -7.274492,-1.3973307 -7.274492,-1.3973307 z"
       sodipodi:nodetypes="cccssccsscc" /></g></svg>
