<?xml version="1.0" encoding="UTF-8" standalone="no"?>
<!-- Created with Inkscape (http://www.inkscape.org/) -->

<svg
   width="160"
   height="160"
   viewBox="0 0 42.333332 42.333333"
   version="1.1"
   id="svg5"
   xml:space="preserve"
   inkscape:version="1.2.1 (9c6d41e410, 2022-07-14)"
   sodipodi:docname="bu.svg"
   inkscape:export-filename="../dist/100x100/bu.png"
   inkscape:export-xdpi="60"
   inkscape:export-ydpi="60"
   xmlns:inkscape="http://www.inkscape.org/namespaces/inkscape"
   xmlns:sodipodi="http://sodipodi.sourceforge.net/DTD/sodipodi-0.dtd"
   xmlns:xlink="http://www.w3.org/1999/xlink"
   xmlns="http://www.w3.org/2000/svg"
   xmlns:svg="http://www.w3.org/2000/svg"><sodipodi:namedview
     id="namedview7"
     pagecolor="#505050"
     bordercolor="#ffffff"
     borderopacity="1"
     inkscape:showpageshadow="0"
     inkscape:pageopacity="0"
     inkscape:pagecheckerboard="1"
     inkscape:deskcolor="#505050"
     inkscape:document-units="mm"
     showgrid="false"
     inkscape:zoom="1.1918241"
     inkscape:cx="-73.836399"
     inkscape:cy="80.968324"
     inkscape:window-width="1366"
     inkscape:window-height="699"
     inkscape:window-x="0"
     inkscape:window-y="0"
     inkscape:window-maximized="1"
     inkscape:current-layer="layer2" /><defs
     id="defs2"><inkscape:path-effect
       effect="perspective-envelope"
       up_left_point="110,10"
       up_right_point="182.74075,2.8389484"
       down_left_point="110,138.80476"
       down_right_point="182.72111,125.41631"
       id="path-effect9482"
       is_visible="true"
       lpeversion="1"
       deform_type="envelope_deformation"
       horizontal_mirror="false"
       vertical_mirror="false"
       overflow_perspective="false" /><inkscape:path-effect
       effect="transform_2pts"
       start="110,71.22674"
       end="171.39491,31.525332"
       id="path-effect9480"
       is_visible="true"
       lpeversion="1"
       first_knot="1"
       last_knot="2"
       helper_size="3"
       stretch="1"
       offset="0"
       elastic="false"
       from_original_width="true"
       flip_vertical="false"
       flip_horizontal="false"
       lock_length="false"
       lock_angle="false" /><inkscape:path-effect
       gridpoint32x33x34x35="150,71.22674"
       gridpoint29x31="170,71.22674"
       gridpoint28x30="130,71.22674"
       gridpoint25x27="190,71.22674"
       gridpoint24x26="110,71.22674"
       gridpoint22x23="150,101.84011"
       gridpoint20x21="150,40.61337"
       gridpoint19="170,101.84011"
       gridpoint18="130,101.84011"
       gridpoint17="170,40.61337"
       gridpoint16="130,40.61337"
       gridpoint15="190,101.84011"
       gridpoint14="110,101.84011"
       gridpoint13="190,40.61337"
       gridpoint12="110,40.61337"
       gridpoint10x11="150,132.45348"
       gridpoint8x9="150,10"
       gridpoint7="170,132.45348"
       gridpoint6="130,132.45348"
       gridpoint5="170,10"
       gridpoint4="130,10"
       gridpoint3="190,132.45348"
       gridpoint2="110,132.45348"
       gridpoint1="190,10"
       gridpoint0="110,10"
       effect="lattice2"
       id="path-effect9392"
       is_visible="true"
       lpeversion="1"
       horizontal_mirror="false"
       vertical_mirror="false"
       perimetral="false"
       live_update="true" /><inkscape:path-effect
       gridpoint32x33x34x35="150,71.22674"
       gridpoint29x31="170,71.22674"
       gridpoint28x30="130,71.22674"
       gridpoint25x27="190,71.22674"
       gridpoint24x26="110,71.22674"
       gridpoint22x23="150,101.84011"
       gridpoint20x21="150,40.61337"
       gridpoint19="170,101.84011"
       gridpoint18="130,101.84011"
       gridpoint17="170,40.61337"
       gridpoint16="130,40.61337"
       gridpoint15="190,101.84011"
       gridpoint14="110,101.84011"
       gridpoint13="190,40.61337"
       gridpoint12="110,40.61337"
       gridpoint10x11="150,132.45348"
       gridpoint8x9="150,10"
       gridpoint7="170,132.45348"
       gridpoint6="130,132.45348"
       gridpoint5="170,10"
       gridpoint4="130,10"
       gridpoint3="190,132.45348"
       gridpoint2="110,132.45348"
       gridpoint1="190.40835,3.5190356"
       gridpoint0="110.31902,6.3152774"
       effect="lattice2"
       id="path-effect8102"
       is_visible="true"
       lpeversion="1"
       horizontal_mirror="false"
       vertical_mirror="false"
       perimetral="false"
       live_update="true" /><inkscape:path-effect
       effect="bend_path"
       id="path-effect8100"
       is_visible="true"
       lpeversion="1"
       bendpath="m 110,71.22674 c 16.98184,22.180793 52.31627,-0.59807 79.67141,-6.645262"
       prop_scale="1.04"
       scale_y_rel="false"
       vertical="false"
       hide_knot="false"
       bendpath-nodetypes="cc" /><linearGradient
       id="linearGradient4663"
       inkscape:swatch="solid"><stop
         style="stop-color:#000000;stop-opacity:1;"
         offset="0"
         id="stop4661" /></linearGradient><filter
       inkscape:label="In and Out"
       inkscape:menu="Shadows and Glows"
       inkscape:menu-tooltip="Inner colorized shadow, outer black shadow"
       style="color-interpolation-filters:sRGB;"
       id="filter6525"
       x="-0.032351269"
       y="-0.053282616"
       width="1.0754863"
       height="1.0959087"><feMorphology
         id="feMorphology18670"
         operator="erode"
         radius="0.5"
         result="result0" /><feGaussianBlur
         result="result1"
         in="result0"
         stdDeviation="0.5"
         id="feGaussianBlur6519" /><feOffset
         id="feOffset35133"
         in="result1"
         result="result2"
         dy="-0.3"
         dx="0.4" /><feComposite
         in="SourceGraphic"
         in2="result2"
         operator="out"
         id="feComposite6523" /></filter><linearGradient
       inkscape:collect="always"
       xlink:href="#linearGradient8815-1"
       id="linearGradient8817-6"
       x1="2.6037173"
       y1="22.997286"
       x2="39.684917"
       y2="22.997286"
       gradientUnits="userSpaceOnUse"
       gradientTransform="translate(-3.6e-6,-1.5875)" /><linearGradient
       inkscape:collect="always"
       id="linearGradient8815-1"><stop
         style="stop-color:#ffffff;stop-opacity:0;"
         offset="0"
         id="stop8811-8" /><stop
         style="stop-color:#ffffff;stop-opacity:0.24193892;"
         offset="0.48986521"
         id="stop8819-7" /><stop
         style="stop-color:#ffffff;stop-opacity:0.0592135;"
         offset="0.87028039"
         id="stop8821-9" /><stop
         style="stop-color:#ffffff;stop-opacity:0.14349835;"
         offset="0.96758133"
         id="stop8813-2" /><stop
         style="stop-color:#ffffff;stop-opacity:0;"
         offset="1"
         id="stop35136-0" /></linearGradient><filter
       inkscape:label="In and Out"
       inkscape:menu="Shadows and Glows"
       inkscape:menu-tooltip="Inner colorized shadow, outer black shadow"
       style="color-interpolation-filters:sRGB"
       id="filter6525-3"
       x="-0.032351269"
       y="-0.042626093"
       width="1.0647025"
       height="1.1030131"><feGaussianBlur
         result="result1"
         in="SourceAlpha"
         stdDeviation="0.5"
         id="feGaussianBlur6519-7" /><feOffset
         id="feOffset35133-5"
         in="result1"
         result="result2"
         dy="0.5"
         dx="0" /><feComposite
         in="SourceGraphic"
         in2="result2"
         operator="out"
         id="feComposite6523-3" /></filter></defs><g
     inkscape:label="Слой 1"
     inkscape:groupmode="layer"
     id="layer1"><path
       id="path307"
       style="fill:#e6e6e6;fill-opacity:1;stroke-width:0.264583"
       d="m 2.6050091,27.246916 c 0,0 2.817971,1.397331 7.2744913,1.397331 5.6784116,0 15.9468926,2.898531 22.3035486,2.898531 4.311408,0 7.501867,-4.278292 7.501867,-4.278292 v -6.315279 c 0,0 -2.673846,-1.583855 -6.985254,-1.583855 -6.356656,0 -17.14175,3.219316 -22.8201616,3.219316 -4.4565203,0 -7.2744913,-1.397331 -7.2744913,-1.397331 z"
       sodipodi:nodetypes="cssccsscc" /><path
       id="path307-75"
       style="fill:#f6ca26;fill-opacity:1;stroke-width:0.264583"
       d="m 2.6050093,33.067749 c 0,0 2.817971,1.397331 7.2744913,1.397331 5.6784114,0 15.9468924,-2.922302 22.3035484,-2.922302 4.311408,0 7.501867,1.542541 7.501867,1.542541 V 26.94912 c 0,0 -2.673846,-1.583855 -6.985254,-1.583855 -6.356656,0 -17.14175,3.219316 -22.8201614,3.219316 -4.4565203,0 -7.2744913,-1.397331 -7.2744913,-1.397331 z"
       sodipodi:nodetypes="cssccsscc" /><path
       id="path307-3"
       style="fill:#130bff;fill-opacity:1;stroke-width:0.264583"
       d="m 2.6050091,21.306669 c 0,0 2.817971,1.397331 7.2744913,1.397331 5.6784116,0 15.9468926,-2.922302 22.3035486,-2.922302 4.311408,0 7.501867,1.542541 7.501867,1.542541 V 9.3075399 c 0,0 -2.673846,-1.5838552 -6.985254,-1.5838552 -6.356656,0 -17.14175,3.2193163 -22.8201616,3.2193163 -4.4565203,0 -7.2744913,-1.3973307 -7.2744913,-1.3973307 z"
       sodipodi:nodetypes="cssccsscc" /><g
       fill="#ffd900"
       id="g4456"
       transform="matrix(0.07175,0,0,0.07175,2.5904873,11.482426)"
       style="fill:#f6ca26;fill-opacity:1"
       inkscape:path-effect="#path-effect9482"><path
         d="m 110.63638,88.797112 c -4.24639,26.620418 12.92774,47.510328 35.72417,43.313358 22.79644,-4.19698 39.97422,-30.13534 35.73179,-54.096632 -3.25716,19.443589 -18.26028,35.767462 -35.73059,38.801712 -17.47031,3.03425 -32.47124,-8.69954 -35.72537,-28.018438"
         id="path4450"
         style="fill:#f6ca26;fill-opacity:1"
         inkscape:original-d="m 110.7,85.002977 a 40,40 0 1 0 78.6,0 40,40 0 0 1 -78.6,0" /><circle
         cx="150"
         cy="80"
         r="30"
         id="circle4452"
         style="fill:#f6ca26;fill-opacity:1" /><path
         d="m 146.0976,6.4463281 c 0.20837,1.7215089 1.12415,3.0483309 2.0023,4.3402859 0.67423,1.343427 0.70536,3.006106 0.27009,4.558794 -0.20964,1.582624 -0.45204,3.383223 0.46435,4.639225 0.97359,1.368798 1.88824,3.001028 1.62961,4.947247 -0.0333,1.994832 -1.21304,3.977767 -0.99443,5.925841 0.45887,1.255454 1.79486,2.774046 2.54287,0.610555 0.94563,-1.793963 -0.45951,-3.504651 -0.0364,-5.342778 0.29435,-1.802468 1.58842,-3.446662 1.25422,-5.322035 -0.0315,-1.677371 -2.11344,-3.044577 -0.49591,-4.790689 0.56867,-0.793374 1.50899,-2.368837 1.42641,-0.4886 0.96449,1.184002 2.08937,2.512139 1.9331,4.341744 -0.14262,1.805879 -0.76605,3.937747 0.73112,5.091426 1.52408,1.629613 2.85619,3.732862 2.87524,6.298463 0.17058,2.212119 -0.25349,4.642735 -1.57154,6.539189 -1.73143,1.81932 -3.60219,3.723388 -5.8839,4.41079 -1.6303,0.469224 -3.22868,1.15962 -4.28874,2.829916 -1.50088,1.59143 -2.98583,0.419248 -3.90958,-0.832323 -1.60087,-0.518564 -3.39412,-0.102477 -5.02762,-0.508703 -2.16675,-0.43475 -4.22309,-1.721699 -5.21923,-3.964579 -1.02801,-2.235739 -1.15959,-4.956811 -1.00829,-7.560726 0.0443,-2.084132 1.07863,-4.032268 2.34879,-5.587619 1.25299,-1.398705 0.74216,-3.390023 0.79709,-5.046794 0.63111,-1.930364 2.33303,-3.06552 3.25806,-4.79569 1.08492,-1.632373 0.7783,2.075226 0.8064,2.834852 0.0487,1.333141 -1.25424,2.303465 -0.99718,3.638768 -0.14166,1.782263 1.69331,2.438719 1.85227,4.097546 0.67123,1.60362 -0.87017,3.583086 0.0906,5.027451 0.50025,0.706029 1.81564,2.357152 1.97004,0.356461 0.7816,-1.63312 0.68218,-3.415721 0.0419,-4.925489 -0.24043,-1.746975 -1.57524,-3.255617 -0.85203,-5.16038 0.54531,-1.713218 2.29888,-2.752259 2.40979,-4.663003 0.22282,-1.76131 -0.82426,-3.145807 -1.02681,-4.805022 -0.44206,-1.847968 0.31919,-4.1691721 1.58449,-5.596581 0.32987,-0.3779088 0.63602,-0.7925805 1.02299,-1.0975456 z"
         id="path4454"
         style="fill:#f6ca26;fill-opacity:1"
         inkscape:original-d="m 149.7,10 c 0.22932,1.69709 1.23662,3.07944 2.20254,4.42578 0.74165,1.37779 0.77604,3.00346 0.29746,4.47422 -0.23043,1.52235 -0.49686,3.25344 0.51113,4.5748 1.07092,1.43924 2.07705,3.13148 1.79278,5.00508 -0.0364,1.94524 -1.33379,3.75109 -1.09317,5.67735 0.50481,1.27779 1.97438,2.91403 2.79688,0.88398 1.03988,-1.64834 -0.50575,-3.47861 -0.0406,-5.2293 0.32356,-1.73081 1.74668,-3.19981 1.37891,-5.07148 -0.0348,-1.64517 -2.32474,-3.20046 -0.5459,-4.74043 0.62535,-0.71792 1.65938,-2.16444 1.56875,-0.33125 1.06091,1.25989 2.29823,2.67965 2.12656,4.45762 -0.15666,1.75579 -0.84211,3.77857 0.80469,5.07363 1.67645,1.7682 3.14184,3.98419 3.16309,6.50879 0.18788,2.1947 -0.27825,4.53485 -1.72774,6.24258 -1.90418,1.57951 -3.96161,3.22151 -6.47117,3.61928 -1.79312,0.26202 -3.5511,0.74318 -4.71691,2.24419 -1.65068,1.36791 -3.28407,0.0451 -4.3002,-1.28457 -1.76083,-0.69674 -3.73318,-0.50788 -5.52988,-1.09746 -2.38322,-0.67928 -4.64504,-2.16728 -5.7408,-4.45097 -1.1308,-2.27737 -1.27567,-4.91886 -1.1094,-7.41543 0.0486,-2.007 1.18612,-3.77551 2.58301,-5.14141 1.37801,-1.2185 0.81606,-3.19937 0.87637,-4.79629 0.694,-1.80223 2.56575,-2.72611 3.58301,-4.3084 1.19311,-1.47328 0.85614,2.09226 0.8871,2.83203 0.0537,1.2983 -1.3793,2.10255 -1.09648,3.42399 -0.15569,1.71252 1.86255,2.54646 2.0375,4.17367 0.73837,1.63036 -0.95681,3.38095 0.1,4.88984 0.55026,0.74174 1.99714,2.49495 2.1668,0.56797 0.85953,-1.49995 0.75004,-3.2445 0.0457,-4.78281 -0.26458,-1.72411 -1.73278,-3.33347 -0.9375,-5.10625 0.59962,-1.60704 2.52818,-2.43365 2.65,-4.28125 0.24493,-1.69103 -0.90679,-3.14432 -1.12969,-4.77812 -0.48633,-1.8405 0.35072,-4.02282 1.74219,-5.28907 0.36276,-0.3361 0.69943,-0.71043 1.125,-0.97031 z" /></g></g><g
     inkscape:groupmode="layer"
     id="layer2"
     inkscape:label="Shadow"
     style="display:inline"><path
       id="rect8083-2"
       style="display:inline;mix-blend-mode:normal;fill:url(#linearGradient8817-6);fill-opacity:1;stroke-width:0.289589"
       d="m 32.699809,7.7235596 c -6.35665,0 -17.141906,3.2194414 -22.8203126,3.2194414 -4.456515,0 -7.274491,-1.3973305 -7.274491,-1.3973305 l -10e-4,-1.2929443 V 30.92731 l 10e-4,2.140439 c 0,0 2.817976,1.397331 7.274492,1.397331 5.6784056,0 15.9468976,-2.922302 22.3035476,-2.922302 4.311403,0 7.501867,1.542541 7.501867,1.542541 V 9.3074425 c 0,0 -2.673699,-1.5838829 -6.985103,-1.5838829 z"
       inkscape:label="rect8083" /><path
       id="path307-7"
       style="display:inline;opacity:0.494207;fill:#000000;fill-opacity:1;stroke-width:0.264583;filter:url(#filter6525)"
       d="m 2.6025722,6.3131843 -0.010335,5.168e-4 0.012919,26.7539229 c 0,0 2.817971,1.397331 7.2744913,1.397331 5.6784115,0 15.9468925,-2.922302 22.3035485,-2.922302 4.311408,0 7.501867,1.542541 7.501867,1.542541 V 9.3074149 c 0,0 -2.673846,-1.5838553 -6.985254,-1.5838553 -6.356656,0 -17.14175,3.2193164 -22.8201615,3.2193164 -4.4565203,0 -7.2744913,-1.3973307 -7.2744913,-1.3973307 z"
       sodipodi:nodetypes="cccssccsscc" /><path
       id="path307-7-5"
       style="display:inline;opacity:0.494207;fill:#ffffff;fill-opacity:1;stroke-width:0.264583;filter:url(#filter6525-3)"
       d="m 2.6024144,6.3133093 -0.01033,5.168e-4 0.01292,26.7539229 c 0,0 2.817971,1.397331 7.274492,1.397331 5.6784106,0 15.9468916,-2.922302 22.3035476,-2.922302 4.311408,0 7.501867,1.542541 7.501867,1.542541 V 9.3075399 c 0,0 -2.673846,-1.5838553 -6.985254,-1.5838553 -6.356656,0 -17.14175,3.2193164 -22.8201606,3.2193164 -4.456521,0 -7.274492,-1.3973307 -7.274492,-1.3973307 z"
       sodipodi:nodetypes="cccssccsscc" /></g></svg>
