<?xml version="1.0" encoding="UTF-8" standalone="no"?>
<!-- Created with Inkscape (http://www.inkscape.org/) -->

<svg
   width="160"
   height="160"
   viewBox="0 0 42.333332 42.333333"
   version="1.1"
   id="svg5"
   xml:space="preserve"
   inkscape:version="1.2.1 (9c6d41e410, 2022-07-14)"
   sodipodi:docname="cau.svg"
   inkscape:export-filename="../dist/100x100/cau.png"
   inkscape:export-xdpi="60"
   inkscape:export-ydpi="60"
   xmlns:inkscape="http://www.inkscape.org/namespaces/inkscape"
   xmlns:sodipodi="http://sodipodi.sourceforge.net/DTD/sodipodi-0.dtd"
   xmlns:xlink="http://www.w3.org/1999/xlink"
   xmlns="http://www.w3.org/2000/svg"
   xmlns:svg="http://www.w3.org/2000/svg"><sodipodi:namedview
     id="namedview7"
     pagecolor="#505050"
     bordercolor="#ffffff"
     borderopacity="1"
     inkscape:showpageshadow="0"
     inkscape:pageopacity="0"
     inkscape:pagecheckerboard="1"
     inkscape:deskcolor="#505050"
     inkscape:document-units="mm"
     showgrid="false"
     inkscape:zoom="4"
     inkscape:cx="61.75"
     inkscape:cy="69.375"
     inkscape:window-width="1366"
     inkscape:window-height="699"
     inkscape:window-x="0"
     inkscape:window-y="0"
     inkscape:window-maximized="1"
     inkscape:current-layer="layer2" /><defs
     id="defs2"><inkscape:path-effect
       effect="bend_path"
       id="path-effect19773"
       is_visible="true"
       lpeversion="1"
       bendpath="M -5.5038796,-3.0956023 6.0666553,-3.90646"
       prop_scale="1"
       scale_y_rel="false"
       vertical="false"
       hide_knot="false"
       bendpath-nodetypes="cc" /><inkscape:path-effect
       effect="clone_original"
       linkeditem=""
       id="path-effect8516"
       is_visible="true"
       lpeversion="1"
       method="d"
       attributes=""
       css_properties=""
       allow_transforms="true" /><linearGradient
       id="linearGradient4663"
       inkscape:swatch="solid"><stop
         style="stop-color:#000000;stop-opacity:1;"
         offset="0"
         id="stop4661" /></linearGradient><filter
       inkscape:label="In and Out"
       inkscape:menu="Shadows and Glows"
       inkscape:menu-tooltip="Inner colorized shadow, outer black shadow"
       style="color-interpolation-filters:sRGB;"
       id="filter6525"
       x="-0.032351269"
       y="-0.053282616"
       width="1.0754863"
       height="1.0959087"><feMorphology
         id="feMorphology18670"
         operator="erode"
         radius="0.5"
         result="result0" /><feGaussianBlur
         result="result1"
         in="result0"
         stdDeviation="0.5"
         id="feGaussianBlur6519" /><feOffset
         id="feOffset35133"
         in="result1"
         result="result2"
         dy="-0.3"
         dx="0.4" /><feComposite
         in="SourceGraphic"
         in2="result2"
         operator="out"
         id="feComposite6523" /></filter><linearGradient
       inkscape:collect="always"
       xlink:href="#linearGradient8815-1"
       id="linearGradient8817-6"
       x1="2.6037173"
       y1="22.997286"
       x2="39.684917"
       y2="22.997286"
       gradientUnits="userSpaceOnUse"
       gradientTransform="translate(-3.6e-6,-1.5875)" /><linearGradient
       inkscape:collect="always"
       id="linearGradient8815-1"><stop
         style="stop-color:#ffffff;stop-opacity:0;"
         offset="0"
         id="stop8811-8" /><stop
         style="stop-color:#ffffff;stop-opacity:0.35896516;"
         offset="0.48986521"
         id="stop8819-7" /><stop
         style="stop-color:#ffffff;stop-opacity:0.0592135;"
         offset="0.87028039"
         id="stop8821-9" /><stop
         style="stop-color:#ffffff;stop-opacity:0.14349835;"
         offset="0.96758133"
         id="stop8813-2" /><stop
         style="stop-color:#ffffff;stop-opacity:0;"
         offset="1"
         id="stop35136-0" /></linearGradient><filter
       inkscape:label="In and Out"
       inkscape:menu="Shadows and Glows"
       inkscape:menu-tooltip="Inner colorized shadow, outer black shadow"
       style="color-interpolation-filters:sRGB"
       id="filter6525-3"
       x="-0.032351269"
       y="-0.042626093"
       width="1.0647025"
       height="1.1030131"><feGaussianBlur
         result="result1"
         in="SourceAlpha"
         stdDeviation="0.5"
         id="feGaussianBlur6519-7" /><feOffset
         id="feOffset35133-5"
         in="result1"
         result="result2"
         dy="0.5"
         dx="0" /><feComposite
         in="SourceGraphic"
         in2="result2"
         operator="out"
         id="feComposite6523-3" /></filter></defs><g
     inkscape:label="Слой 1"
     inkscape:groupmode="layer"
     id="layer1"><path
       id="path307"
       style="fill:#d8d8d8;stroke-width:0.264583;fill-opacity:1"
       d="m 2.6024251,6.3133097 -0.010335,5.168e-4 0.012919,26.7539225 c 0,0 2.817971,1.397331 7.2744913,1.397331 5.6784116,0 15.9468926,-2.922302 22.3035486,-2.922302 4.311408,0 7.501867,1.542541 7.501867,1.542541 V 9.3075402 c 0,0 -2.673846,-1.5838552 -6.985254,-1.5838552 -6.356656,0 -17.14175,3.219316 -22.8201616,3.219316 -4.4565203,0 -7.2744913,-1.3973304 -7.2744913,-1.3973304 z"
       sodipodi:nodetypes="cccssccsscc" /><path
       id="path307-3"
       style="fill:#1b9033;fill-opacity:1;stroke-width:0.264583"
       d="m 2.6024191,6.31331 -0.01033,5.168e-4 0.01292,6.5921292 c 0,0 2.8179711,1.397331 7.2744914,1.397331 5.6784115,0 15.9468925,-2.922302 22.3035485,-2.922302 4.311408,0 7.501867,1.542541 7.501867,1.542541 l 0,-3.6159854 c 0,0 -2.673846,-1.5838553 -6.985254,-1.5838553 -6.356656,0 -17.14175,3.2193167 -22.8201615,3.2193167 -4.4565203,0 -7.2744914,-1.3973314 -7.2744914,-1.3973314 z"
       sodipodi:nodetypes="cccssccsscc" /><use
       x="0"
       y="0"
       xlink:href="#path307-3"
       id="use8530"
       transform="translate(-0.0064595,6.7848317)" /><use
       x="0"
       y="0"
       xlink:href="#use8530"
       id="use8532"
       transform="translate(-0.00645995,6.7839361)" /><use
       x="0"
       y="0"
       xlink:href="#use8532"
       id="use8534"
       transform="translate(0.01291935,6.5930252)" /><path
       id="path307-6"
       style="fill:#0063f5;fill-opacity:1;stroke-width:0.264583"
       d="M 2.6024251 6.3133097 L 2.5957072 6.3138265 L 2.5957072 10.060368 L 2.605009 19.693888 C 2.605009 19.693888 5.4229845 21.091219 9.8795003 21.091219 C 12.322848 21.091219 15.617365 20.549643 19.083073 19.93315 L 19.083073 9.7058675 C 15.584446 10.368629 12.275838 10.943001 9.8795003 10.943001 C 5.4229845 10.943001 2.605009 9.5456706 2.605009 9.5456706 L 2.6024251 6.3133097 z " /><path
       id="use16057-2"
       style="fill:#ffffff;stroke-width:0.2486"
       inkscape:transform-center-x="0.07072694"
       inkscape:transform-center-y="0.035558361"
       d="m 16.698052,15.809372 -0.73438,-0.154695 -0.376435,0.649261 -0.07981,-0.74624 -0.73381,-0.157378 0.685053,-0.306507 -0.07708,-0.746526 0.503198,0.556808 0.686169,-0.304001 -0.374059,0.650634 z m -2.747567,2.297316 -0.73438,-0.154695 -0.376435,0.649262 -0.07981,-0.74624 -0.73381,-0.157378 0.685054,-0.306507 -0.07708,-0.746527 0.503198,0.556809 0.686169,-0.304001 -0.37406,0.650633 z m -3.1012,0.233861 -0.73438,-0.154695 -0.3764356,0.649262 -0.079812,-0.74624 -0.7338096,-0.157379 0.6850533,-0.306506 -0.077084,-0.746527 0.5031989,0.556809 0.686169,-0.304001 -0.37406,0.650633 z M 7.748084,17.826055 7.0137042,17.67136 6.637269,18.320622 6.557457,17.574382 5.8236475,17.417004 6.5087008,17.110497 6.4316168,16.36397 l 0.5031983,0.556809 0.686169,-0.304001 -0.3740597,0.650633 z m 6.202401,-3.692702 -0.73438,-0.154695 -0.376435,0.649262 -0.07981,-0.746241 -0.733809,-0.157378 0.685053,-0.306506 -0.07708,-0.746527 0.503198,0.556808 0.686169,-0.304001 -0.37406,0.650634 z m -3.1012,0.233861 -0.73438,-0.154695 -0.3764356,0.649261 -0.079812,-0.74624 -0.7338096,-0.157378 0.6850533,-0.306507 -0.077084,-0.746526 0.5031989,0.556808 0.686169,-0.304001 -0.37406,0.650634 z M 7.748084,13.85272 7.0137042,13.698025 6.637269,14.347287 6.5574573,13.601046 5.8236478,13.443668 l 0.6850533,-0.306506 -0.077084,-0.746527 0.5031983,0.556808 0.686169,-0.304001 -0.3740597,0.650634 z"
       sodipodi:nodetypes="ccccccccccccccccccccccccccccccccccccccccccccccccccccccccccccccccccccccccccccc" /></g><g
     inkscape:groupmode="layer"
     id="layer2"
     inkscape:label="Shadow"
     style="display:inline"><path
       id="rect8083-2"
       style="display:inline;fill:url(#linearGradient8817-6);fill-opacity:1;stroke-width:0.289589"
       d="m 32.699809,7.7235596 c -6.35665,0 -17.141906,3.2194414 -22.8203126,3.2194414 -4.456515,0 -7.274491,-1.3973305 -7.274491,-1.3973305 l -10e-4,-1.2929443 V 30.92731 l 10e-4,2.140439 c 0,0 2.817976,1.397331 7.274492,1.397331 5.6784056,0 15.9468976,-2.922302 22.3035476,-2.922302 4.311403,0 7.501867,1.542541 7.501867,1.542541 V 9.3074425 c 0,0 -2.673699,-1.5838829 -6.985103,-1.5838829 z"
       inkscape:label="rect8083" /><path
       id="path307-7"
       style="display:inline;opacity:0.494207;fill:#000000;fill-opacity:1;stroke-width:0.264583;filter:url(#filter6525)"
       d="m 2.6025722,6.3131843 -0.010335,5.168e-4 0.012919,26.7539229 c 0,0 2.817971,1.397331 7.2744913,1.397331 5.6784115,0 15.9468925,-2.922302 22.3035485,-2.922302 4.311408,0 7.501867,1.542541 7.501867,1.542541 V 9.3074149 c 0,0 -2.673846,-1.5838553 -6.985254,-1.5838553 -6.356656,0 -17.14175,3.2193164 -22.8201615,3.2193164 -4.4565203,0 -7.2744913,-1.3973307 -7.2744913,-1.3973307 z"
       sodipodi:nodetypes="cccssccsscc" /><path
       id="path307-7-5"
       style="display:inline;opacity:0.494207;fill:#ffffff;fill-opacity:1;stroke-width:0.264583;filter:url(#filter6525-3)"
       d="m 2.6024144,6.3133093 -0.01033,5.168e-4 0.01292,26.7539229 c 0,0 2.817971,1.397331 7.274492,1.397331 5.6784106,0 15.9468916,-2.922302 22.3035476,-2.922302 4.311408,0 7.501867,1.542541 7.501867,1.542541 V 9.3075399 c 0,0 -2.673846,-1.5838553 -6.985254,-1.5838553 -6.356656,0 -17.14175,3.2193164 -22.8201606,3.2193164 -4.456521,0 -7.274492,-1.3973307 -7.274492,-1.3973307 z"
       sodipodi:nodetypes="cccssccsscc" /></g></svg>
