<?xml version="1.0" encoding="UTF-8" standalone="no"?>
<!-- Created with Inkscape (http://www.inkscape.org/) -->

<svg
   width="160"
   height="160"
   viewBox="0 0 42.333332 42.333333"
   version="1.1"
   id="svg5"
   xml:space="preserve"
   inkscape:version="1.2.1 (9c6d41e410, 2022-07-14)"
   sodipodi:docname="cv.svg"
   inkscape:export-filename="flagudm.png"
   inkscape:export-xdpi="60"
   inkscape:export-ydpi="60"
   xmlns:inkscape="http://www.inkscape.org/namespaces/inkscape"
   xmlns:sodipodi="http://sodipodi.sourceforge.net/DTD/sodipodi-0.dtd"
   xmlns:xlink="http://www.w3.org/1999/xlink"
   xmlns="http://www.w3.org/2000/svg"
   xmlns:svg="http://www.w3.org/2000/svg"><sodipodi:namedview
     id="namedview7"
     pagecolor="#505050"
     bordercolor="#ffffff"
     borderopacity="1"
     inkscape:showpageshadow="0"
     inkscape:pageopacity="0"
     inkscape:pagecheckerboard="1"
     inkscape:deskcolor="#505050"
     inkscape:document-units="mm"
     showgrid="false"
     inkscape:zoom="2.3836482"
     inkscape:cx="48.664899"
     inkscape:cy="89.988112"
     inkscape:window-width="1366"
     inkscape:window-height="699"
     inkscape:window-x="0"
     inkscape:window-y="0"
     inkscape:window-maximized="1"
     inkscape:current-layer="layer1" /><defs
     id="defs2"><inkscape:path-effect
       effect="lattice2"
       gridpoint0="-107.27356,-110.0539"
       gridpoint1="106.91683,-101.13118"
       gridpoint2="-107.27356,138.93758"
       gridpoint3="106.01769,138.93758"
       gridpoint4="-53.950747,-110.0539"
       gridpoint5="52.694878,-110.0539"
       gridpoint6="-53.950747,138.93758"
       gridpoint7="52.694878,138.93758"
       gridpoint8x9="-0.627935,-110.0539"
       gridpoint10x11="-0.627935,138.93758"
       gridpoint12="-107.27356,-47.80603"
       gridpoint13="105.67219,-46.088023"
       gridpoint14="-107.27356,76.68971"
       gridpoint15="106.01769,76.68971"
       gridpoint16="-53.950747,-47.80603"
       gridpoint17="52.694878,-47.80603"
       gridpoint18="-53.950747,76.68971"
       gridpoint19="52.694878,76.68971"
       gridpoint20x21="-0.627935,-47.80603"
       gridpoint22x23="-0.627935,76.68971"
       gridpoint24x26="-107.27356,14.44184"
       gridpoint25x27="106.01769,14.44184"
       gridpoint28x30="-53.950747,14.44184"
       gridpoint29x31="52.694878,14.44184"
       gridpoint32x33x34x35="-0.627935,14.44184"
       id="path-effect6266"
       is_visible="true"
       lpeversion="1"
       horizontal_mirror="false"
       vertical_mirror="false"
       perimetral="false"
       live_update="true" /><linearGradient
       id="linearGradient4663"
       inkscape:swatch="solid"><stop
         style="stop-color:#000000;stop-opacity:1;"
         offset="0"
         id="stop4661" /></linearGradient><filter
       inkscape:label="In and Out"
       inkscape:menu="Shadows and Glows"
       inkscape:menu-tooltip="Inner colorized shadow, outer black shadow"
       style="color-interpolation-filters:sRGB;"
       id="filter6525"
       x="-0.032351269"
       y="-0.053282616"
       width="1.0754863"
       height="1.0959087"><feMorphology
         id="feMorphology18670"
         operator="erode"
         radius="0.5"
         result="result0" /><feGaussianBlur
         result="result1"
         in="result0"
         stdDeviation="0.5"
         id="feGaussianBlur6519" /><feOffset
         id="feOffset35133"
         in="result1"
         result="result2"
         dy="-0.3"
         dx="0.4" /><feComposite
         in="SourceGraphic"
         in2="result2"
         operator="out"
         id="feComposite6523" /></filter><linearGradient
       inkscape:collect="always"
       xlink:href="#linearGradient8815-1"
       id="linearGradient8817-6"
       x1="2.6037173"
       y1="22.997286"
       x2="39.684917"
       y2="22.997286"
       gradientUnits="userSpaceOnUse"
       gradientTransform="translate(-3.6e-6,-1.5875)" /><linearGradient
       inkscape:collect="always"
       id="linearGradient8815-1"><stop
         style="stop-color:#ffffff;stop-opacity:0;"
         offset="0"
         id="stop8811-8" /><stop
         style="stop-color:#ffffff;stop-opacity:0.35896516;"
         offset="0.48986521"
         id="stop8819-7" /><stop
         style="stop-color:#ffffff;stop-opacity:0.0592135;"
         offset="0.87028039"
         id="stop8821-9" /><stop
         style="stop-color:#ffffff;stop-opacity:0.14349835;"
         offset="0.96758133"
         id="stop8813-2" /><stop
         style="stop-color:#ffffff;stop-opacity:0;"
         offset="1"
         id="stop35136-0" /></linearGradient><filter
       inkscape:label="In and Out"
       inkscape:menu="Shadows and Glows"
       inkscape:menu-tooltip="Inner colorized shadow, outer black shadow"
       style="color-interpolation-filters:sRGB"
       id="filter6525-3"
       x="-0.032351269"
       y="-0.042626093"
       width="1.0647025"
       height="1.1030131"><feGaussianBlur
         result="result1"
         in="SourceAlpha"
         stdDeviation="0.5"
         id="feGaussianBlur6519-7" /><feOffset
         id="feOffset35133-5"
         in="result1"
         result="result2"
         dy="0.5"
         dx="0" /><feComposite
         in="SourceGraphic"
         in2="result2"
         operator="out"
         id="feComposite6523-3" /></filter></defs><g
     inkscape:label="Слой 1"
     inkscape:groupmode="layer"
     id="layer1"><path
       id="path307"
       style="fill:#e1c311;fill-opacity:1;stroke-width:0.264583"
       d="m 2.6024251,6.3133097 -0.010335,5.168e-4 0.012919,22.0493005 c 0,0 2.817971,1.397331 7.2744913,1.397331 5.6784116,0 15.9468926,-2.922302 22.3035486,-2.922302 4.311408,0 7.501867,1.542541 7.501867,1.542541 l 0,-19.0731568 c 0,0 -2.673846,-1.5838552 -6.985254,-1.5838552 -6.356656,0 -17.14175,3.219316 -22.8201616,3.219316 -4.4565203,0 -7.2744913,-1.3973304 -7.2744913,-1.3973304 z"
       sodipodi:nodetypes="cccssccsscc" /><path
       id="path307-6"
       style="fill:#931e12;fill-opacity:1;stroke-width:0.264583"
       d="m 2.605009,33.067749 c 0,0 2.8179755,1.397331 7.2744913,1.397331 5.6784057,0 15.9468987,-2.922302 22.3035487,-2.922302 4.311403,0 7.501867,1.542541 7.501867,1.542541 v -4.704622 c 0,0 -3.190464,-1.542542 -7.501867,-1.542542 -6.35665,0 -16.625143,2.922302 -22.3035487,2.922302 -4.4565158,0 -7.2744913,-1.39733 -7.2744913,-1.39733 z"
       sodipodi:nodetypes="cssccsscc" /><path
       id="path307-6-2-9"
       style="fill:#931e12;fill-opacity:1;stroke-width:0.264583"
       d="m 32.183049,25.709025 c -2.741121,0 -6.729731,0.661263 -10.24394,1.279419 v 0.564824 c 3.514209,-0.618157 7.502819,-1.27942 10.24394,-1.27942 4.311398,0 7.501867,1.542542 7.501867,1.542542 v -0.564823 c 0,0 -3.190469,-1.542542 -7.501867,-1.542542 z m -11.601585,1.626564 c -4.181093,0.749055 -7.788981,1.295738 -10.7019637,1.295738 -4.4565118,0 -7.2744913,-1.39733 -7.2744913,-1.39733 v 0.564823 c 0,0 2.8179805,1.397331 7.2744913,1.397331 2.9129837,0 6.5208707,-0.547201 10.7019637,-1.296255 z"
       sodipodi:nodetypes="sccsccscsccscc" /><g
       id="g6135"
       style="fill:#931e12;fill-opacity:1"
       transform="matrix(0.0736529,-0.01755752,0,0.0736529,21.294126,18.208404)"
       inkscape:path-effect="#path-effect6266"><path
         class="fil1"
         d="m 76.56313,-56.288264 c 5.033131,-4.675039 15.09125,-14.071094 15.09125,-14.071094 -0.02067,4.912831 -0.08456,14.639308 -0.08456,14.639308 5.013202,0.19958 15.006686,0.568214 15.006686,0.568214 -5.02271,4.682294 -15.077906,14.004778 -15.077906,14.004778 4.98971,5.038099 14.937266,15.019298 14.937266,15.019298 -4.98996,-0.158139 -14.996824,-0.504294 -14.996824,-0.504294 -0.0081,4.845982 -0.04956,14.462789 -0.04956,14.462789 -4.973659,-4.960932 -14.947253,-14.969651 -14.947253,-14.969651 -5.003987,4.682845 -15.036264,14.036924 -15.036264,14.036924 0.02274,-4.825799 0.04209,-14.541135 0.04209,-14.541135 -4.989951,-0.158068 -14.996825,-0.5043 -14.996825,-0.5043 5.023864,-4.687548 15.047386,-14.07642 15.047386,-14.07642 -4.973023,-5.039283 -14.946223,-15.200744 -14.946223,-15.200744 5.01233,0.199601 15.004041,0.568113 15.004041,0.568113 0.03189,-4.868247 0.07179,-14.688842 0.07179,-14.688842 4.981193,5.106992 9.953773,10.187409 14.934901,15.257056 z m -9.724474,4.808463 c 0.02062,-2.426915 0.0334,-7.323262 0.0334,-7.323262 3.229515,3.2928 9.656717,9.822073 9.656717,9.822073 3.256826,-3.015859 9.74672,-9.079721 9.74672,-9.079721 -0.0029,2.4498 -0.0371,7.302649 -0.0371,7.302649 2.511699,0.103196 7.503669,0.279164 7.503669,0.279164 -3.240398,3.032175 -9.742785,9.062667 -9.742785,9.062667 3.228806,3.263045 9.654879,9.731667 9.654879,9.731667 -2.489796,-0.07611 -7.497835,-0.258371 -7.497835,-0.258371 5.83e-4,2.432552 -0.02694,7.254631 -0.02694,7.254631 -3.211043,-3.221514 -9.660867,-9.717686 -9.660867,-9.717686 -3.234256,3.032978 -9.727934,9.072567 -9.727934,9.072567 0.01769,-2.412858 0.02424,-7.277732 0.02424,-7.277732 -2.48979,-0.07607 -7.497834,-0.258371 -7.497834,-0.258371 3.252837,-3.020224 9.730973,-9.085147 9.730973,-9.085147 -3.210781,-3.250652 -9.66031,-9.804192 -9.66031,-9.804192 z"
         id="path3023"
         style="clip-rule:evenodd;fill:#931e12;fill-opacity:1;fill-rule:evenodd;stroke-width:2.64583e-06;image-rendering:optimizeQuality;shape-rendering:geometricPrecision;text-rendering:geometricPrecision"
         inkscape:original-d="m 76.082735,-63.249063 14.967479,-14.967479 v 14.967479 h 14.967476 l -14.967476,14.967479 14.967476,14.967479 H 91.050214 v 14.964833 L 76.082735,-33.316751 61.117902,-18.349272 V -33.316751 H 46.150423 L 61.117902,-48.281584 46.150423,-63.249063 h 14.964833 v -14.967479 z m -9.675813,5.291666 v -7.485062 l 9.675813,9.675812 9.675812,-9.673166 v 7.482416 h 7.485063 l -9.675813,9.675813 9.673167,9.673166 h -7.482417 v 7.485063 l -9.675812,-9.675813 -9.675813,9.675813 v -7.485063 h -7.482416 l 9.675812,-9.673166 -9.675812,-9.675813 z" /><path
         class="fil1"
         d="m -77.262778,-62.112734 c 5.018181,-4.773095 15.025837,-14.324968 15.025837,-14.324968 0.0031,4.980684 -0.01914,14.893182 -0.01914,14.893182 5.013243,0.199768 15.006694,0.568214 15.006694,0.568214 -4.998553,4.77215 -15.022818,14.309955 -15.022818,14.309955 5.006538,5.1479 14.98334,15.369334 14.98334,15.369334 -4.989929,-0.15875 -14.996822,-0.506875 -14.996822,-0.506875 0.0068,4.965726 -0.0086,14.85388 -0.0086,14.85388 -4.985277,-5.095857 -14.985601,-15.358093 -14.985601,-15.358093 -4.99266,4.808224 -15.000566,14.425284 -15.000566,14.425284 0.01115,-4.966139 0.0037,-14.929584 0.0037,-14.929584 -4.989923,-0.157821 -14.996826,-0.5043 -14.996826,-0.5043 5.00996,-4.811687 15.001321,-14.429031 15.001321,-14.429031 -4.989783,-5.148648 -15.001321,-15.505927 -15.001321,-15.505927 5.01326,0.199824 15.006696,0.568219 15.006696,0.568219 0.01197,-4.968975 0.0064,-14.940071 0.0064,-14.940071 -0.54808,-0.567613 15.545786,16.078395 14.997706,15.510781 z m -9.70388,4.908187 c 0.01126,-2.47747 0.0039,-7.463552 0.0039,-7.463552 3.242824,3.351824 9.694377,10.00919 9.694377,10.00919 3.246921,-3.084142 9.709073,-9.269423 9.709073,-9.269423 0.0074,2.493685 -0.0076,7.445531 -0.0076,7.445531 2.511737,0.103395 7.503669,0.279166 7.503669,0.279166 -3.226494,3.095061 -9.70828,9.265479 -9.70828,9.265479 3.239692,3.334964 9.685603,9.955797 9.685603,9.955797 -2.489765,-0.07587 -7.497834,-0.258371 -7.497834,-0.258371 0.0081,2.489939 -0.0055,7.435151 -0.0055,7.435151 -3.218944,-3.30137 -9.686277,-9.94983 -9.686277,-9.94983 -3.223768,3.107302 -9.702526,9.30734 -9.702526,9.30734 0.01091,-2.476744 0.0028,-7.460882 0.0028,-7.460882 -2.488876,-0.0758 -7.495184,-0.258279 -7.495184,-0.258279 3.243972,-3.099237 9.697597,-9.309374 9.697597,-9.309374 -3.221603,-3.321274 -9.694816,-10.00701 -9.694816,-10.00701 z"
         id="path3025"
         style="clip-rule:evenodd;fill:#931e12;fill-opacity:1;fill-rule:evenodd;stroke-width:2.64583e-06;image-rendering:optimizeQuality;shape-rendering:geometricPrecision;text-rendering:geometricPrecision"
         inkscape:original-d="m -77.341201,-63.249063 14.967479,-14.967479 v 14.967479 h 14.967479 l -14.967479,14.967479 14.967479,14.967479 -14.967479,-0.0026 0.0026,14.967479 -14.967479,-14.967479 -14.967479,14.967479 v -14.967479 h -14.96748 l 14.96748,-14.967479 -14.96748,-14.967479 h 14.96748 v -14.964833 z m -9.675812,5.28902 v -7.482416 l 9.675812,9.675812 9.675813,-9.675812 v 7.482416 h 7.485062 l -9.675812,9.675813 9.673166,9.675812 h -7.482416 v 7.482417 l -9.673167,-9.673167 -9.678458,9.675813 v -7.485063 h -7.479771 l 9.673167,-9.675812 -9.675813,-9.675813 z" /><path
         class="fil1"
         d="M -0.24205874,-90.710736 C 4.7902095,-95.445031 14.849578,-104.96646 14.849578,-104.96646 c -0.01523,4.984787 -0.07005,14.869833 -0.07005,14.869833 5.017315,0.215036 15.018977,0.614003 15.018977,0.614003 -5.025039,4.751559 -15.081275,14.204196 -15.081275,14.204196 4.996491,5.141266 14.954483,15.34343 14.954483,15.34343 -4.993486,-0.181223 -15.007438,-0.574215 -15.007438,-0.574215 -0.0062,4.933394 -0.04466,14.730469 -0.04466,14.730469 -4.9780215,-5.075507 -14.96274464,-15.30217 -14.96274464,-15.30217 -5.00662236,4.745292 -15.04111136,14.217152 -15.04111136,14.217152 0.02025,-4.911146 0.03366,-14.78881 0.03366,-14.78881 -4.992594,-0.180284 -15.004795,-0.571556 -15.004795,-0.571556 5.022164,-4.742997 15.044722,-14.248398 15.044722,-14.248398 -4.981212,-5.134903 -14.974668,-15.469065 -14.974668,-15.469065 5.018215,0.215966 15.021625,0.616698 15.021625,0.616698 0.02689,-4.942422 0.05478,-14.893787 0.05478,-14.893787 -0.441421,-0.4582 15.40827687,15.966142 14.96685626,15.507944 z m -9.72927506,4.854447 c 0.018456,-2.463885 0.026409,-7.43075 0.026409,-7.43075 3.2360221,3.349026 9.67447513,9.998645 9.67447513,9.998645 3.25620637,-3.055525 9.74609647,-9.201951 9.74609647,-9.201951 -9.816e-4,2.4881 -0.031679,7.420441 -0.031679,7.420441 2.5140658,0.111738 7.5107198,0.304209 7.5107198,0.304209 -3.241831,3.074728 -9.7457132,9.186729 -9.7457132,9.186729 3.2343082,3.329546 9.6699872,9.937221 9.6699872,9.937221 -2.492553,-0.08658 -7.5061408,-0.290444 -7.5061408,-0.290444 0.00176,2.47407 -0.023676,7.380647 -0.023676,7.380647 -3.2136877,-3.291119 -9.67002064,-9.921191 -9.67002064,-9.921191 -3.23519586,3.073204 -9.72951436,9.189932 -9.72951436,9.189932 0.0163,-2.454335 0.01974,-7.40019 0.01974,-7.40019 -2.491661,-0.08652 -7.503488,-0.290342 -7.503488,-0.290342 3.251858,-3.057982 9.7291426,-9.201375 9.7291426,-9.201375 -3.2158376,-3.313551 -9.6770626,-9.98579 -9.6770626,-9.98579 z"
         id="path3027"
         style="clip-rule:evenodd;fill:#931e12;fill-opacity:1;fill-rule:evenodd;stroke-width:2.64583e-06;image-rendering:optimizeQuality;shape-rendering:geometricPrecision;text-rendering:geometricPrecision"
         inkscape:original-d="m -0.62791,-95.086375 14.964833,-14.967475 0.0026,14.967475 h 14.964833 l -14.964833,14.967479 14.967479,14.967479 -14.967479,-0.0026 v 14.967479 L -0.62791,-65.154063 -15.595389,-50.186584 v -14.967479 h -14.964833 l 14.964833,-14.967479 -14.967479,-14.967479 14.967479,0.0026 V -110.0539 Z m -9.675812,5.28902 v -7.482416 l 9.675812,9.675812 9.6731665,-9.675812 v 7.482416 h 7.4850625 l -9.6758124,9.675813 9.6758124,9.675812 H 9.0452565 v 7.482417 l -9.6731665,-9.673167 -9.675812,9.675813 v -7.485063 h -7.482417 l 9.6731666,-9.675812 -9.6758126,-9.675813 z" /><path
         id="polygon3029"
         class="fil1"
         style="clip-rule:evenodd;fill:#931e12;fill-opacity:1;fill-rule:evenodd;stroke-width:2.64583e-06;image-rendering:optimizeQuality;shape-rendering:geometricPrecision;text-rendering:geometricPrecision"
         d="m 8.7535918,43.863781 c -0.017043,26.74696 -0.094012,80.259119 -0.094012,80.259119 2.6569655,0.0168 7.9393535,0.0211 7.9393535,0.0211 0.0558,-25.7131 0.09701,-76.925983 0.09701,-76.925983 6.765043,-6.429828 20.265834,-19.235943 20.265834,-19.235943 4.375751,4.347303 13.093926,12.969801 13.093926,12.969801 -2.490084,2.370795 -7.502675,7.0966 -7.502675,7.0966 -1.237017,-1.22134 -3.740384,-3.695992 -3.740384,-3.695992 1.260538,-1.175418 3.74993,-3.551447 3.74993,-3.551447 -1.860568,-1.840244 -5.610734,-5.556439 -5.610734,-5.556439 -3.114387,2.966214 -9.377204,8.890451 -9.377204,8.890451 5.623244,5.573771 16.834428,16.626378 16.834428,16.626378 3.764477,-3.556566 11.251564,-10.660531 11.251564,-10.660531 0.01678,-4.807823 0.02098,-14.457402 0.02098,-14.457402 C 49.456206,29.493631 36.977913,17.085935 36.977913,17.085935 27.549661,25.980592 18.174442,34.872629 8.7535918,43.863781 Z"
         sodipodi:nodetypes="cccccccccccccccc"
         inkscape:original-d="M 8.6325066,41.621185 V 123.81548 H 16.570006 V 44.90731 l 20.219459,-20.219458 13.096874,13.096875 -7.485062,7.482417 -3.741208,-3.741209 3.741208,-3.741208 -5.611812,-5.611812 -9.355667,9.35302 16.838083,16.838084 11.226271,-11.223625 V 32.172915 L 36.789465,13.464227 Z" /><path
         id="polygon3031"
         class="fil1"
         style="clip-rule:evenodd;fill:#931e12;fill-opacity:1;fill-rule:evenodd;stroke-width:2.64583e-06;image-rendering:optimizeQuality;shape-rendering:geometricPrecision;text-rendering:geometricPrecision"
         d="m -9.7865897,43.505433 c -0.012721,26.853511 -0.07899,80.568347 -0.07899,80.568347 -2.6369914,0.003 -7.9393534,-0.0211 -7.9393534,-0.0211 0.04308,-25.875506 0.07006,-77.476506 0.07006,-77.476506 -6.732949,-6.730088 -20.227615,-20.305375 -20.227615,-20.305375 -4.364583,4.214762 -13.119187,12.645052 -13.119187,12.645052 2.507001,2.525735 7.489071,7.533384 7.489071,7.533384 1.259651,-1.197768 3.747132,-3.618731 3.747132,-3.618731 -1.237902,-1.243795 -3.743074,-3.763813 -3.743074,-3.763813 1.884889,-1.799139 5.621283,-5.417769 5.621283,-5.417769 3.129881,3.150036 9.35715,9.398965 9.35715,9.398965 -5.61344,5.422545 -16.864348,16.292832 -16.864348,16.292832 -3.733431,-3.74235 -11.229089,-11.281528 -11.229089,-11.281528 0.01211,-4.927403 0.0065,-14.811784 0.0065,-14.811784 6.257339,-6.028952 18.742304,-18.045447 18.742304,-18.045447 9.412931,9.514708 18.758575,18.905277 28.1681363,28.303433 z"
         sodipodi:nodetypes="cccccccccccccccc"
         inkscape:original-d="M -9.8883265,41.621185 V 123.81548 H -17.825826 V 44.90731 l -20.219459,-20.219458 -13.096874,13.096875 7.485062,7.482417 3.741208,-3.741209 -3.741208,-3.741208 5.611812,-5.611812 9.353021,9.35302 -16.838083,16.838084 -11.223625,-11.223625 V 32.170269 l 18.708687,-18.708687 z" /><path
         id="polygon3033"
         class="fil1"
         style="clip-rule:evenodd;fill:#931e12;fill-opacity:1;fill-rule:evenodd;stroke-width:2.64583e-06;image-rendering:optimizeQuality;shape-rendering:geometricPrecision;text-rendering:geometricPrecision"
         d="m -9.770192,25.17212 c 0.00649,3.678928 -0.010076,11.000651 -0.010076,11.000651 -15.6188673,-15.625013 -46.8914533,-47.3789 -46.8914533,-47.3789 -5.616973,5.4032367 -16.872789,16.2235673 -16.872789,16.2235673 4.380961,4.4659511 13.108712,13.3288507 13.108712,13.3288507 2.51038,-2.402303 7.496193,-7.221423 7.496193,-7.221423 -1.238252,-1.2560682 -3.744141,-3.8008775 -3.744141,-3.8008775 -1.239418,1.211625 -3.748364,3.6072015 -3.748364,3.6072015 -1.862534,-1.8919315 -5.616772,-5.7117713 -5.616772,-5.7117713 3.13617,-3.0017743 9.372031,-9.0129563 9.372031,-9.0129563 5.004515,5.0966093 14.978653,15.2089856 14.978653,15.2089856 -4.365509,4.207053 -13.121571,12.61982 -13.121571,12.61982 -4.985323,-0.10587 -14.982999,-0.347917 -14.982999,-0.347917 -6.233673,-6.32467 -18.730349,-19.0738021 -18.730349,-19.0738021 7.507886,-7.2453459 22.496542,-21.6721419 22.496542,-21.6721419 5.008702,0.165731 14.993082,0.466384 14.993082,0.466384 13.832088,14.1138795 27.44901,27.897779 41.273301,41.764329 z"
         inkscape:original-d="M -9.8883265,22.909852 V 34.136123 L -56.753972,-12.729522 -73.592055,4.1085609 -60.49518,17.205436 -53.012764,9.7203733 -56.753972,5.979165 -60.49518,9.7203733 -66.106993,4.1085609 -56.753972,-5.2471057 -41.786493,9.7203733 -54.883368,22.817248 H -69.848201 L -88.559534,4.1085609 -66.106993,-18.341335 h 14.967479 z" /><path
         id="polygon3035"
         class="fil1"
         style="clip-rule:evenodd;fill:#931e12;fill-opacity:1;fill-rule:evenodd;stroke-width:2.64583e-06;image-rendering:optimizeQuality;shape-rendering:geometricPrecision;text-rendering:geometricPrecision"
         d="m 8.7731081,25.602361 c 0.00582,3.66483 -0.011992,10.957742 -0.011992,10.957742 C 24.429497,21.648833 55.763162,-7.8212215 55.763162,-7.8212215 61.383141,-2.1940739 72.589775,8.9552352 72.589775,8.9552352 68.221372,13.058238 59.450736,21.266431 59.450736,21.266431 c -2.483592,-2.462618 -7.479374,-7.429694 -7.479374,-7.429694 1.261417,-1.16609 3.753054,-3.524615 3.753054,-3.524615 1.256733,1.250776 3.73945,3.71829 3.73945,3.71829 1.88744,-1.751502 5.630281,-5.2771572 5.630281,-5.2771572 -3.106456,-3.08906 -9.347513,-9.31703314 -9.347513,-9.31703314 C 50.748317,4.1403207 40.729954,13.546155 40.729954,13.546155 c 4.375318,4.36185 13.092921,13.011885 13.092921,13.011885 5.005327,0.1259 14.983,0.347918 14.983,0.347918 C 75.072374,21.047472 87.578382,9.3591246 87.578382,9.3591246 80.109081,1.9652299 65.145603,-12.977963 65.145603,-12.977963 60.156902,-13.123447 50.152521,-13.444346 50.152521,-13.444346 36.285976,-0.4480062 22.615506,12.439985 8.7731081,25.602361 Z"
         inkscape:original-d="M 8.6325066,22.909852 V 34.136123 L 55.498152,-12.729522 72.336235,4.1085609 59.23936,17.205436 51.756944,9.7203733 55.498152,5.979165 59.23936,9.7203733 64.851173,4.1085609 55.498152,-5.2471057 40.530673,9.7203733 53.627548,22.817248 H 68.592381 L 87.303714,4.1085609 64.851173,-18.341335 H 49.883694 Z" /><path
         id="polygon3037"
         class="fil1"
         style="clip-rule:evenodd;fill:#931e12;fill-opacity:1;fill-rule:evenodd;stroke-width:2.64583e-06;image-rendering:optimizeQuality;shape-rendering:geometricPrecision;text-rendering:geometricPrecision"
         d="m -4.59666,138.93758 c 0.00923,-4.55108 0.081771,-67.855165 0.090996,-72.406244 C -4.485771,42.434859 -4.4699192,23.15015 -4.4699192,23.15015 -18.733214,8.8502308 -47.292399,-20.17768 -47.292399,-20.17768 c 0.01476,-4.926025 0.01567,-14.819388 0.01567,-14.819388 7.518582,-7.147553 22.536113,-21.41609 22.536113,-21.41609 6.250368,6.416045 18.7134465,19.144604 18.7134465,19.144604 -1.006e-4,4.926057 -0.027684,14.721179 -0.027684,14.721179 -4.3689765,4.15753 -13.1385735,12.469549 -13.1385735,12.469549 -4.98205,-5.050794 -14.974829,-15.227998 -14.974829,-15.227998 3.139945,-2.968813 9.387006,-8.9215 9.387006,-8.9215 1.881834,1.92116 5.614078,5.725168 5.614078,5.725168 -1.241485,1.197761 -3.753918,3.564211 -3.753918,3.564211 1.257853,1.280806 3.742686,3.808117 3.742686,3.808117 2.513397,-2.367402 7.508064,-7.122503 7.508064,-7.122503 -4.356579,-4.434026 -13.098558,-13.366068 -13.098558,-13.366068 -5.625744,5.35679 -16.895702,16.067379 -16.895702,16.067379 13.742485,14.031782 41.17619425,41.693703 41.17619425,41.693703 C 13.277227,3.0678903 40.805787,-22.853524 40.805787,-22.853524 c -5.600114,-5.648846 -16.82762,-17.04158 -16.82762,-17.04158 -4.375678,4.136017 -13.152705,12.392422 -13.152705,12.392422 2.504187,2.540041 7.480821,7.575308 7.480821,7.575308 1.262247,-1.170492 3.755993,-3.539225 3.755993,-3.539225 -1.236896,-1.251135 -3.739982,-3.786259 -3.739982,-3.786259 1.888987,-1.760272 5.636223,-5.306702 5.636223,-5.306702 3.127689,3.171265 9.350925,9.460841 9.350925,9.460841 -4.99836,4.716677 -15.024575,14.1491951 -15.024575,14.1491951 C 13.929028,-13.338208 5.1893091,-22.183116 5.1893091,-22.183116 c 0.019322,-4.88001 0.030759,-14.694111 0.030759,-14.694111 6.2746286,-5.903002 18.8030896,-17.712149 18.8030896,-17.712149 7.489137,7.650465 22.430839,22.799559 22.430839,22.799559 -0.0047,4.885138 -0.04015,14.588031 -0.04015,14.588031 C 32.09367,-3.7544518 3.4773786,23.338084 3.4773786,23.338084 3.5432686,-54.06677 3.3430427,172.93384 3.4089327,95.528987 3.3800695,119.5984 3.34084,138.93758 3.34084,138.93758 Z"
         sodipodi:nodetypes="cccccccccccccccccccccccccccccccccc"
         inkscape:original-d="M -4.59666,138.93758 V 20.719102 l -42.801645,-42.801645 v -14.967479 l 22.449895,-22.449896 18.7086876,18.708688 v 14.964833 l -13.0968746,13.096875 -14.967479,-14.967479 9.355666,-9.353021 5.611813,5.611812 -3.741209,3.741209 3.741209,3.741208 7.482416,-7.482417 -13.094229,-13.096874 -16.838083,16.838083 41.158583,41.158583 41.158583,-41.158583 -16.838083,-16.838083 -13.094229,13.096874 7.482416,7.482417 3.741209,-3.741208 -3.741209,-3.741209 5.611813,-5.611812 9.355666,9.353021 L 18.080777,-12.729522 4.9839024,-25.826397 V -40.79123 L 23.69259,-59.499918 46.142485,-37.050022 v 14.967479 L 3.34084,20.719102 V 138.93758 Z" /></g></g><g
     inkscape:groupmode="layer"
     id="layer2"
     inkscape:label="Shadow"
     sodipodi:insensitive="true"
     style="display:inline"><path
       id="rect8083-2"
       style="display:inline;fill:url(#linearGradient8817-6);fill-opacity:1;stroke-width:0.289589"
       d="m 32.699809,7.7235596 c -6.35665,0 -17.141906,3.2194414 -22.8203126,3.2194414 -4.456515,0 -7.274491,-1.3973305 -7.274491,-1.3973305 l -10e-4,-1.2929443 V 30.92731 l 10e-4,2.140439 c 0,0 2.817976,1.397331 7.274492,1.397331 5.6784056,0 15.9468976,-2.922302 22.3035476,-2.922302 4.311403,0 7.501867,1.542541 7.501867,1.542541 V 9.3074425 c 0,0 -2.673699,-1.5838829 -6.985103,-1.5838829 z"
       inkscape:label="rect8083" /><path
       id="path307-7"
       style="display:inline;opacity:0.494207;fill:#000000;fill-opacity:1;stroke-width:0.264583;filter:url(#filter6525)"
       d="m 2.6025722,6.3131843 -0.010335,5.168e-4 0.012919,26.7539229 c 0,0 2.817971,1.397331 7.2744913,1.397331 5.6784115,0 15.9468925,-2.922302 22.3035485,-2.922302 4.311408,0 7.501867,1.542541 7.501867,1.542541 V 9.3074149 c 0,0 -2.673846,-1.5838553 -6.985254,-1.5838553 -6.356656,0 -17.14175,3.2193164 -22.8201615,3.2193164 -4.4565203,0 -7.2744913,-1.3973307 -7.2744913,-1.3973307 z"
       sodipodi:nodetypes="cccssccsscc" /><path
       id="path307-7-5"
       style="display:inline;opacity:0.494207;fill:#ffffff;fill-opacity:1;stroke-width:0.264583;filter:url(#filter6525-3)"
       d="m 2.6024144,6.3133093 -0.01033,5.168e-4 0.01292,26.7539229 c 0,0 2.817971,1.397331 7.274492,1.397331 5.6784106,0 15.9468916,-2.922302 22.3035476,-2.922302 4.311408,0 7.501867,1.542541 7.501867,1.542541 V 9.3075399 c 0,0 -2.673846,-1.5838553 -6.985254,-1.5838553 -6.356656,0 -17.14175,3.2193164 -22.8201606,3.2193164 -4.456521,0 -7.274492,-1.3973307 -7.274492,-1.3973307 z"
       sodipodi:nodetypes="cccssccsscc" /></g></svg>
