<?xml version="1.0" encoding="UTF-8" standalone="no"?>
<!-- Created with Inkscape (http://www.inkscape.org/) -->

<svg
   width="160"
   height="160"
   viewBox="0 0 42.333332 42.333333"
   version="1.1"
   id="svg5"
   xml:space="preserve"
   inkscape:version="1.2.1 (9c6d41e410, 2022-07-14)"
   sodipodi:docname="tt.svg"
   inkscape:export-filename="flagtt.png"
   inkscape:export-xdpi="60"
   inkscape:export-ydpi="60"
   xmlns:inkscape="http://www.inkscape.org/namespaces/inkscape"
   xmlns:sodipodi="http://sodipodi.sourceforge.net/DTD/sodipodi-0.dtd"
   xmlns:xlink="http://www.w3.org/1999/xlink"
   xmlns="http://www.w3.org/2000/svg"
   xmlns:svg="http://www.w3.org/2000/svg"><sodipodi:namedview
     id="namedview7"
     pagecolor="#505050"
     bordercolor="#ffffff"
     borderopacity="1"
     inkscape:showpageshadow="0"
     inkscape:pageopacity="0"
     inkscape:pagecheckerboard="1"
     inkscape:deskcolor="#505050"
     inkscape:document-units="mm"
     showgrid="false"
     inkscape:zoom="1.6854938"
     inkscape:cx="115.98975"
     inkscape:cy="87.511446"
     inkscape:window-width="1366"
     inkscape:window-height="699"
     inkscape:window-x="0"
     inkscape:window-y="0"
     inkscape:window-maximized="1"
     inkscape:current-layer="layer2" /><defs
     id="defs2"><linearGradient
       inkscape:collect="always"
       id="linearGradient8815"><stop
         style="stop-color:#ffffff;stop-opacity:0;"
         offset="0"
         id="stop8811" /><stop
         style="stop-color:#ffffff;stop-opacity:0.35896516;"
         offset="0.48986521"
         id="stop8819" /><stop
         style="stop-color:#ffffff;stop-opacity:0.0592135;"
         offset="0.87028039"
         id="stop8821" /><stop
         style="stop-color:#ffffff;stop-opacity:0.14349835;"
         offset="0.96758133"
         id="stop8813" /><stop
         style="stop-color:#ffffff;stop-opacity:0;"
         offset="1"
         id="stop35136" /></linearGradient><linearGradient
       id="linearGradient4663"
       inkscape:swatch="solid"><stop
         style="stop-color:#000000;stop-opacity:1;"
         offset="0"
         id="stop4661" /></linearGradient><filter
       inkscape:label="In and Out"
       inkscape:menu="Shadows and Glows"
       inkscape:menu-tooltip="Inner colorized shadow, outer black shadow"
       style="color-interpolation-filters:sRGB;"
       id="filter6525"
       x="-0.032351269"
       y="-0.053282617"
       width="1.0754863"
       height="1.0959087"><feMorphology
         id="feMorphology18670"
         operator="erode"
         radius="0.5"
         result="result0" /><feGaussianBlur
         result="result1"
         in="result0"
         stdDeviation="0.5"
         id="feGaussianBlur6519" /><feOffset
         id="feOffset35133"
         in="result1"
         result="result2"
         dy="-0.3"
         dx="0.4" /><feComposite
         in="SourceGraphic"
         in2="result2"
         operator="out"
         id="feComposite6523" /></filter><linearGradient
       inkscape:collect="always"
       xlink:href="#linearGradient8815"
       id="linearGradient8817"
       x1="2.6037173"
       y1="22.997286"
       x2="39.684917"
       y2="22.997286"
       gradientUnits="userSpaceOnUse"
       gradientTransform="translate(0,-1.5875)" /><filter
       inkscape:label="In and Out"
       inkscape:menu="Shadows and Glows"
       inkscape:menu-tooltip="Inner colorized shadow, outer black shadow"
       style="color-interpolation-filters:sRGB"
       id="filter6525-3"
       x="-0.032351268"
       y="-0.042626093"
       width="1.0647025"
       height="1.1030131"><feGaussianBlur
         result="result1"
         in="SourceAlpha"
         stdDeviation="0.5"
         id="feGaussianBlur6519-7" /><feOffset
         id="feOffset35133-5"
         in="result1"
         result="result2"
         dy="0.5"
         dx="0" /><feComposite
         in="SourceGraphic"
         in2="result2"
         operator="out"
         id="feComposite6523-3" /></filter></defs><g
     inkscape:label="Слой 1"
     inkscape:groupmode="layer"
     id="layer1"><path
       id="path307"
       style="fill:#f1f1f1;fill-opacity:1;stroke-width:0.264583"
       d="m 2.6024215,7.9007607 -0.010335,5.168e-4 0.012919,24.1080895 c 0,0 2.817971,1.397331 7.2744913,1.397331 5.6784112,0 15.9468922,-2.922302 22.3035482,-2.922302 4.311408,0 7.501867,1.542541 7.501867,1.542541 V 10.894991 c 0,0 -2.673846,-1.583855 -6.985254,-1.583855 -6.356656,0 -17.14175,3.219316 -22.8201612,3.219316 -4.4565203,0 -7.2744913,-1.39733 -7.2744913,-1.39733 z"
       sodipodi:nodetypes="cccssccsscc" /><path
       id="path307-2"
       style="fill:#d20701;fill-opacity:1;stroke-width:0.264583"
       d="M 2.598291 18.857764 L 2.605009 33.067749 C 2.605009 33.067749 5.4229845 34.46508 9.8795003 34.46508 C 15.557906 34.46508 25.826399 31.542778 32.183049 31.542778 C 36.494452 31.542778 39.684916 33.085319 39.684916 33.085319 L 39.684916 21.621419 C 38.612185 21.183316 35.982925 20.26853 32.699813 20.26853 C 26.343163 20.26853 15.557907 23.487455 9.8795003 23.487455 C 5.4229848 23.487455 2.605009 22.090125 2.605009 22.090125 L 2.6024251 18.857764 L 2.598291 18.857764 z " /><path
       id="path307-0"
       style="fill:#137b05;fill-opacity:1;stroke-width:0.264583"
       d="M 2.6024251 6.3133097 L 2.6086263 19.690271 C 2.6086263 19.690271 5.4266021 21.087602 9.8831177 21.087602 C 15.561522 21.087602 25.830016 18.165299 32.186666 18.165299 C 36.484781 18.165299 39.665329 19.69684 39.684916 19.706291 L 39.684916 9.3074422 C 39.684916 9.3074422 37.011217 7.7235596 32.699813 7.7235596 C 26.343163 7.7235596 15.557906 10.943001 9.8795003 10.943001 C 5.4229845 10.943001 2.605009 9.5456706 2.605009 9.5456706 L 2.6024251 6.3133097 z " /></g><g
     inkscape:groupmode="layer"
     id="layer2"
     inkscape:label="Shadow"
     sodipodi:insensitive="true"><path
       id="rect8083"
       style="display:inline;fill:url(#linearGradient8817);fill-opacity:1;stroke-width:0.289589"
       d="m 32.699813,7.7235596 c -6.35665,0 -17.141906,3.2194414 -22.8203127,3.2194414 -4.4565155,0 -7.2744913,-1.3973304 -7.2744913,-1.3973304 L 2.6039754,8.2527262 V 30.927311 l 0.00103,2.140438 c 0,0 2.8179758,1.397331 7.2744913,1.397331 5.6784063,0 15.9468983,-2.922302 22.3035483,-2.922302 4.311403,0 7.501867,1.542541 7.501867,1.542541 V 9.3074422 c 0,0 -2.673699,-1.5838826 -6.985103,-1.5838826 z" /><path
       id="path307-7"
       style="display:inline;opacity:0.494207;fill:#000000;fill-opacity:1;stroke-width:0.264583;filter:url(#filter6525)"
       d="m 2.6024252,6.3133095 -0.010335,5.168e-4 0.012919,26.7539227 c 0,0 2.817971,1.397331 7.2744913,1.397331 5.6784115,0 15.9468925,-2.922302 22.3035485,-2.922302 4.311408,0 7.501867,1.542541 7.501867,1.542541 V 9.3075401 c 0,0 -2.673846,-1.5838553 -6.985254,-1.5838553 -6.356656,0 -17.14175,3.2193162 -22.8201615,3.2193162 -4.4565203,0 -7.2744913,-1.3973305 -7.2744913,-1.3973305 z"
       sodipodi:nodetypes="cccssccsscc" /><path
       id="path307-7-5"
       style="display:inline;opacity:0.494207;fill:#ffffff;fill-opacity:1;stroke-width:0.264583;filter:url(#filter6525-3)"
       d="m 2.60257,6.313184 -0.01033,5.17e-4 0.01292,26.753923 c 0,0 2.817971,1.397331 7.274492,1.397331 5.678411,0 15.946892,-2.922302 22.303548,-2.922302 4.311408,0 7.501867,1.542541 7.501867,1.542541 V 9.3074149 c 0,0 -2.673846,-1.5838553 -6.985254,-1.5838553 -6.356656,0 -17.14175,3.2193164 -22.820161,3.2193164 -4.456521,0 -7.274492,-1.3973307 -7.274492,-1.3973307 z"
       sodipodi:nodetypes="cccssccsscc" /></g></svg>
