<?xml version="1.0" encoding="UTF-8" standalone="no"?>
<!-- Created with Inkscape (http://www.inkscape.org/) -->

<svg
   width="160"
   height="160"
   viewBox="0 0 42.333332 42.333333"
   version="1.1"
   id="svg5"
   xml:space="preserve"
   inkscape:version="1.2.1 (9c6d41e410, 2022-07-14)"
   sodipodi:docname="udm.svg"
   inkscape:export-filename="flagudm.png"
   inkscape:export-xdpi="60"
   inkscape:export-ydpi="60"
   xmlns:inkscape="http://www.inkscape.org/namespaces/inkscape"
   xmlns:sodipodi="http://sodipodi.sourceforge.net/DTD/sodipodi-0.dtd"
   xmlns:xlink="http://www.w3.org/1999/xlink"
   xmlns="http://www.w3.org/2000/svg"
   xmlns:svg="http://www.w3.org/2000/svg"><sodipodi:namedview
     id="namedview7"
     pagecolor="#505050"
     bordercolor="#ffffff"
     borderopacity="1"
     inkscape:showpageshadow="0"
     inkscape:pageopacity="0"
     inkscape:pagecheckerboard="1"
     inkscape:deskcolor="#505050"
     inkscape:document-units="mm"
     showgrid="false"
     inkscape:zoom="1.6854938"
     inkscape:cx="36.191174"
     inkscape:cy="91.071234"
     inkscape:window-width="1366"
     inkscape:window-height="699"
     inkscape:window-x="0"
     inkscape:window-y="0"
     inkscape:window-maximized="1"
     inkscape:current-layer="layer2" /><defs
     id="defs2"><linearGradient
       inkscape:collect="always"
       id="linearGradient11816"><stop
         style="stop-color:#050505;stop-opacity:1;"
         offset="0.32522476"
         id="stop11814" /><stop
         style="stop-color:#f1f1f1;stop-opacity:1;"
         offset="0.32724741"
         id="stop11820" /><stop
         style="stop-color:#eeeeee;stop-opacity:1;"
         offset="0.65805864"
         id="stop11822" /><stop
         style="stop-color:#c00006;stop-opacity:1;"
         offset="0.65805864"
         id="stop11824" /></linearGradient><linearGradient
       id="linearGradient4663"
       inkscape:swatch="solid"><stop
         style="stop-color:#000000;stop-opacity:1;"
         offset="0"
         id="stop4661" /></linearGradient><filter
       inkscape:label="In and Out"
       inkscape:menu="Shadows and Glows"
       inkscape:menu-tooltip="Inner colorized shadow, outer black shadow"
       style="color-interpolation-filters:sRGB;"
       id="filter6525"
       x="-0.032351269"
       y="-0.053282616"
       width="1.0754863"
       height="1.0959087"><feMorphology
         id="feMorphology18670"
         operator="erode"
         radius="0.5"
         result="result0" /><feGaussianBlur
         result="result1"
         in="result0"
         stdDeviation="0.5"
         id="feGaussianBlur6519" /><feOffset
         id="feOffset35133"
         in="result1"
         result="result2"
         dy="-0.3"
         dx="0.4" /><feComposite
         in="SourceGraphic"
         in2="result2"
         operator="out"
         id="feComposite6523" /></filter><linearGradient
       inkscape:collect="always"
       xlink:href="#linearGradient11816"
       id="linearGradient11818"
       x1="2.5920901"
       y1="20.389195"
       x2="39.684916"
       y2="20.389195"
       gradientUnits="userSpaceOnUse" /><linearGradient
       inkscape:collect="always"
       xlink:href="#linearGradient8815-1"
       id="linearGradient8817-6"
       x1="2.6037173"
       y1="22.997286"
       x2="39.684917"
       y2="22.997286"
       gradientUnits="userSpaceOnUse"
       gradientTransform="translate(-3.6e-6,-1.5875)" /><linearGradient
       inkscape:collect="always"
       id="linearGradient8815-1"><stop
         style="stop-color:#ffffff;stop-opacity:0;"
         offset="0"
         id="stop8811-8" /><stop
         style="stop-color:#ffffff;stop-opacity:0.35896516;"
         offset="0.48986521"
         id="stop8819-7" /><stop
         style="stop-color:#ffffff;stop-opacity:0.0592135;"
         offset="0.87028039"
         id="stop8821-9" /><stop
         style="stop-color:#ffffff;stop-opacity:0.14349835;"
         offset="0.96758133"
         id="stop8813-2" /><stop
         style="stop-color:#ffffff;stop-opacity:0;"
         offset="1"
         id="stop35136-0" /></linearGradient><filter
       inkscape:label="In and Out"
       inkscape:menu="Shadows and Glows"
       inkscape:menu-tooltip="Inner colorized shadow, outer black shadow"
       style="color-interpolation-filters:sRGB"
       id="filter6525-3"
       x="-0.032351269"
       y="-0.042626093"
       width="1.0647025"
       height="1.1030131"><feGaussianBlur
         result="result1"
         in="SourceAlpha"
         stdDeviation="0.5"
         id="feGaussianBlur6519-7" /><feOffset
         id="feOffset35133-5"
         in="result1"
         result="result2"
         dy="0.5"
         dx="0" /><feComposite
         in="SourceGraphic"
         in2="result2"
         operator="out"
         id="feComposite6523-3" /></filter></defs><g
     inkscape:label="Слой 1"
     inkscape:groupmode="layer"
     id="layer1"><path
       id="path307"
       style="fill:url(#linearGradient11818);stroke-width:0.264583;fill-opacity:1"
       d="m 2.6024251,6.3133097 -0.010335,5.168e-4 0.012919,26.7539225 c 0,0 2.817971,1.397331 7.2744913,1.397331 5.6784116,0 15.9468926,-2.922302 22.3035486,-2.922302 4.311408,0 7.501867,1.542541 7.501867,1.542541 V 9.3075402 c 0,0 -2.673846,-1.5838552 -6.985254,-1.5838552 -6.356656,0 -17.14175,3.219316 -22.8201616,3.219316 -4.4565203,0 -7.2744913,-1.3973304 -7.2744913,-1.3973304 z"
       sodipodi:nodetypes="cccssccsscc" /><path
       style="fill:#c40007;fill-opacity:1;stroke-width:0.130887"
       d="m 19.212595,19.653253 0.0806,-3.163845 1.549962,1.254553 1.601855,-1.849754 -0.0806,3.163845 3.206547,-0.60886 -1.629769,1.878149 1.549272,1.281743 -3.17914,0.60036 -0.08078,3.171126 -1.54941,-1.276283 -1.624242,1.875608 0.0806,-3.163845 -3.184627,0.601395 1.630711,-1.915137 -1.51692,-1.254976 z"
       id="path15764"
       inkscape:label="path15764" /></g><g
     inkscape:groupmode="layer"
     id="layer2"
     inkscape:label="Shadow"
     sodipodi:insensitive="true"><path
       id="rect8083-2"
       style="display:inline;fill:url(#linearGradient8817-6);fill-opacity:1;stroke-width:0.289589"
       d="m 32.699809,7.7235596 c -6.35665,0 -17.141906,3.2194414 -22.8203126,3.2194414 -4.456515,0 -7.274491,-1.3973305 -7.274491,-1.3973305 l -10e-4,-1.2929443 V 30.92731 l 10e-4,2.140439 c 0,0 2.817976,1.397331 7.274492,1.397331 5.6784056,0 15.9468976,-2.922302 22.3035476,-2.922302 4.311403,0 7.501867,1.542541 7.501867,1.542541 V 9.3074425 c 0,0 -2.673699,-1.5838829 -6.985103,-1.5838829 z"
       inkscape:label="rect8083" /><path
       id="path307-7"
       style="display:inline;opacity:0.494207;fill:#000000;fill-opacity:1;stroke-width:0.264583;filter:url(#filter6525)"
       d="m 2.6025722,6.3131843 -0.010335,5.168e-4 0.012919,26.7539229 c 0,0 2.817971,1.397331 7.2744913,1.397331 5.6784115,0 15.9468925,-2.922302 22.3035485,-2.922302 4.311408,0 7.501867,1.542541 7.501867,1.542541 V 9.3074149 c 0,0 -2.673846,-1.5838553 -6.985254,-1.5838553 -6.356656,0 -17.14175,3.2193164 -22.8201615,3.2193164 -4.4565203,0 -7.2744913,-1.3973307 -7.2744913,-1.3973307 z"
       sodipodi:nodetypes="cccssccsscc" /><path
       id="path307-7-5"
       style="display:inline;opacity:0.494207;fill:#ffffff;fill-opacity:1;stroke-width:0.264583;filter:url(#filter6525-3)"
       d="m 2.6024144,6.3133093 -0.01033,5.168e-4 0.01292,26.7539229 c 0,0 2.817971,1.397331 7.274492,1.397331 5.6784106,0 15.9468916,-2.922302 22.3035476,-2.922302 4.311408,0 7.501867,1.542541 7.501867,1.542541 V 9.3075399 c 0,0 -2.673846,-1.5838553 -6.985254,-1.5838553 -6.356656,0 -17.14175,3.2193164 -22.8201606,3.2193164 -4.456521,0 -7.274492,-1.3973307 -7.274492,-1.3973307 z"
       sodipodi:nodetypes="cccssccsscc" /></g></svg>
